<svg width="25" height="25" viewBox="0 0 25 25" fill="none" xmlns="http://www.w3.org/2000/svg">
<g clip-path="url(#clip0_113_271)">
<path d="M17.3111 0C17.3693 0 17.4274 0 17.4889 0C17.6316 1.76305 16.9587 3.0804 16.1408 4.03438C15.3383 4.98178 14.2395 5.90063 12.4621 5.76121C12.3436 4.02341 13.0176 2.80376 13.8344 1.85197C14.5918 0.964958 15.9805 0.175647 17.3111 0Z" fill="#787792"/>
<path d="M22.6913 18.3507C22.6913 18.3683 22.6913 18.3837 22.6913 18.4001C22.1918 19.9129 21.4794 21.2094 20.6099 22.4126C19.8162 23.5049 18.8436 24.9748 17.1069 24.9748C15.6062 24.9748 14.6094 24.0098 13.0714 23.9835C11.4445 23.9571 10.5498 24.7904 9.06227 25C8.89211 25 8.72195 25 8.55509 25C7.46278 24.842 6.58126 23.9769 5.93905 23.1975C4.04536 20.8943 2.58201 17.9193 2.30975 14.1122C2.30975 13.7389 2.30975 13.3668 2.30975 12.9935C2.42502 10.2688 3.74896 8.05344 5.50872 6.9798C6.43745 6.40895 7.71418 5.92263 9.13582 6.13999C9.74509 6.2344 10.3675 6.44298 10.9131 6.64937C11.4302 6.84807 12.0768 7.20046 12.6894 7.1818C13.1043 7.16972 13.5171 6.95346 13.9354 6.80086C15.1605 6.35845 16.3615 5.85127 17.9445 6.08949C19.847 6.37712 21.1972 7.22242 22.0316 8.52659C20.4222 9.55083 19.1499 11.0943 19.3672 13.7301C19.5604 16.1244 20.9524 17.5252 22.6913 18.3507Z" fill="#787792"/>
</g>
<defs>
<clipPath id="clip0_113_271">
<rect width="25" height="25" fill="white"/>
</clipPath>
</defs>
</svg>
