<svg width="24" height="24" viewBox="0 0 24 24" fill="none" xmlns="http://www.w3.org/2000/svg">
<path d="M14.2861 4C14.8382 4.00023 15.2861 4.44785 15.2861 5C15.2861 5.55215 14.8382 5.99977 14.2861 6H3C2.44772 6 2 6.44772 2 7V21C2 21.5523 2.44772 22 3 22H17C17.5523 22 18 21.5523 18 21V9.28613C18 8.73385 18.4477 8.28613 19 8.28613C19.5523 8.28613 20 8.73385 20 9.28613V21C20 22.6569 18.6569 24 17 24H3C1.34315 24 0 22.6569 0 21V7C1.87911e-08 5.34315 1.34315 4 3 4H14.2861ZM22.5 0C22.5563 0 22.6113 0.00571338 22.665 0.0146484C22.6738 0.0161084 22.6827 0.0168607 22.6914 0.0185547L22.7012 0.0205078C22.711 0.0225203 22.7207 0.025044 22.7305 0.0273438C22.751 0.032196 22.7717 0.0367993 22.792 0.0429688C22.8408 0.057833 22.8873 0.0778027 22.9326 0.0996094C22.9466 0.106345 22.9609 0.11269 22.9746 0.120117C23.1203 0.198874 23.2441 0.312548 23.335 0.450195C23.3597 0.487681 23.3812 0.526617 23.4004 0.566406C23.4222 0.61159 23.4412 0.65838 23.4561 0.707031C23.4623 0.727318 23.4668 0.747986 23.4717 0.768555C23.4893 0.842936 23.5 0.92022 23.5 1V11C23.5 11.5523 23.0523 12 22.5 12C21.9477 12 21.5 11.5523 21.5 11V3.41406L9.70703 15.207C9.31651 15.5976 8.68349 15.5976 8.29297 15.207C7.90244 14.8165 7.90244 14.1835 8.29297 13.793L20.0859 2H12.5C11.9477 2 11.5 1.55228 11.5 1C11.5 0.447715 11.9477 0 12.5 0H22.5Z" fill="black"/>
</svg>