<svg width="366" height="196" viewBox="0 0 366 196" fill="none" xmlns="http://www.w3.org/2000/svg">
<path d="M56.5 182C34 192 0 196 0 196V0H365.5C365.5 0 277.5 41 240.5 53.5C227.118 58.0211 214.782 60.8415 203.469 63.4281C183.503 67.993 166.724 71.8295 153 83C138.835 94.5295 127.709 111.702 118.763 125.509C114.13 132.659 110.082 138.906 106.5 143C96 155 79 172 56.5 182Z" fill="#C5EDCE"/>
<path d="M48.0752 139.286C28.9302 146.939 0 150 0 150V0H311C311 0 236.122 31.3776 204.639 40.9439C193.252 44.4039 182.756 46.5624 173.129 48.5419C156.141 52.0355 141.863 54.9715 130.186 63.5204C118.133 72.344 108.666 85.4861 101.054 96.0526C97.1121 101.524 93.6678 106.306 90.6197 109.439C81.6854 118.622 67.2202 131.633 48.0752 139.286Z" fill="#3A4975"/>
</svg>
