<svg width="393" height="196" viewBox="0 0 393 196" fill="none" xmlns="http://www.w3.org/2000/svg">
<path d="M393 0C393 0 356.783 4 332.815 14C308.848 24 290.739 41 279.554 53C275.738 57.094 271.427 63.3414 266.492 70.4912C256.962 84.2982 245.11 101.47 230.022 113C215.403 124.171 197.529 128.007 176.261 132.572C171.133 133.673 147.229 137.618 111.783 138.5C63.9371 139.691 36.8843 148.903 28.6956 151.5C18.8116 154.635 9.06163 158.996 0 163.771V196H393V0Z" fill="#C5EDCE"/>
<path d="M392.625 196V78.0546C392.625 78.0546 382.316 76.402 359.356 91.2762C336.396 106.15 336.865 114.827 327.025 121.025C317.185 127.222 285.791 123.504 263.768 130.941C241.745 138.378 210.351 157.384 192.545 158.21C174.739 159.036 150.769 153.573 132.941 153.573C115.113 153.573 101.476 155.359 77.1101 161.97C52.7444 168.581 23.625 196 23.625 196H392.625Z" fill="#3A4975"/>
</svg>
